<svg width="320" height="405" viewBox="0 0 320 405" fill="none" xmlns="http://www.w3.org/2000/svg">
<g clip-path="url(#clip0_175_20)">
<path d="M135.509 56.9028L33.3333 116.329C18.2491 125.102 8.96875 141.235 8.96875 158.685V218.476V278.266C8.96875 295.716 18.2491 311.849 33.3333 320.623L84.5787 350.427L135.509 380.049C150.738 388.906 169.549 388.906 184.778 380.049L286.954 320.623C302.038 311.849 311.318 295.716 311.318 278.266V158.685C311.318 141.235 302.038 125.102 286.954 116.329L184.778 56.9028C169.549 48.0454 150.738 48.0454 135.509 56.9028Z" fill="#0290DE" stroke="white" stroke-width="16.3013"/>
<path d="M135.509 56.9028L33.3333 116.329C18.2491 125.102 8.96875 141.235 8.96875 158.685V218.476V278.266C8.96875 295.716 18.2491 311.849 33.3333 320.623L84.5787 350.427L135.509 380.049C150.738 388.906 169.549 388.906 184.778 380.049L286.954 320.623C302.038 311.849 311.318 295.716 311.318 278.266V158.685C311.318 141.235 302.038 125.102 286.954 116.329L184.778 56.9028C169.549 48.0454 150.738 48.0454 135.509 56.9028Z" stroke="white" stroke-width="16.3013"/>
<path d="M259.693 229.336C258.982 226.44 256.058 224.667 253.162 225.378L205.961 236.958C203.065 237.669 201.293 240.593 202.004 243.489C202.714 246.386 205.638 248.158 208.535 247.447L250.491 237.154L260.784 279.11C261.495 282.006 264.419 283.778 267.315 283.068C270.211 282.357 271.984 279.433 271.273 276.536L259.693 229.336ZM160.173 124.648L163.008 129.244L170.655 124.526L162.901 119.988L160.173 124.648ZM80.2984 173.923L77.4634 169.327L74.8984 170.909V173.923H80.2984ZM80.2984 257.623H74.8984V259.099L75.6495 260.37L80.2984 257.623ZM157.338 120.052L77.4634 169.327L83.1334 178.519L163.008 129.244L157.338 120.052ZM164.382 389.668L259.067 233.421L249.83 227.824L155.146 384.071L164.382 389.668ZM92.8705 91.5079L157.446 129.308L162.901 119.988L98.3263 82.1875L92.8705 91.5079ZM74.8984 173.923V257.623H85.6984V173.923H74.8984ZM75.6495 260.37L152.026 389.6L161.324 384.105L84.9474 254.875L75.6495 260.37ZM155.146 384.071C156.556 381.744 159.939 381.762 161.324 384.105L152.026 389.6C154.795 394.285 161.562 394.323 164.382 389.668L155.146 384.071Z" fill="white"/>
<path d="M141.144 123.552C140.966 131.023 149.244 137.28 159.633 137.528C170.023 137.775 178.589 131.92 178.767 124.449C178.945 116.978 170.668 110.721 160.278 110.473C149.889 110.226 141.322 116.081 141.144 123.552Z" fill="white"/>
<path d="M69.6048 245.979C75.7489 241.725 85.5253 245.203 91.4409 253.748C97.3565 262.292 97.1713 272.667 91.0272 276.921C84.8831 281.175 75.1068 277.696 69.1912 269.152C63.2755 260.607 63.4608 250.232 69.6048 245.979Z" fill="white"/>
<path fill-rule="evenodd" clip-rule="evenodd" d="M160.2 206.916L26.7045 129.273L19.6562 141.392L153.19 219.057V384.298H167.21V219.057L300.744 141.392L293.696 129.273L160.2 206.916Z" fill="white"/>
<path fill-rule="evenodd" clip-rule="evenodd" d="M85.7031 77.1741V68.1358C85.7031 65.1532 88.121 62.7358 91.1031 62.7358C94.0857 62.7358 96.5031 65.1532 96.5031 68.1358V77.1741H85.7031ZM91.1031 57.0541C88.121 57.0541 85.7031 54.6367 85.7036 51.6541V33.5778C85.7036 30.5955 88.121 28.1778 91.1036 28.1778C94.0857 28.1778 96.5036 30.5955 96.5036 33.5779V51.6541C96.5031 54.6367 94.0857 57.0541 91.1031 57.0541ZM91.1036 22.4964C88.121 22.4964 85.7036 20.0787 85.7036 17.0964V8.0582C85.7036 5.07587 88.121 2.65819 91.1036 2.6582C94.0857 2.65822 96.5036 5.07587 96.5036 8.05824V17.0964C96.5036 20.0788 94.0857 22.4964 91.1036 22.4964Z" fill="white"/>
</g>
<defs>
<clipPath id="clip0_175_20">
<rect width="319.05" height="403.65" fill="white" transform="translate(0.648438 0.449219)"/>
</clipPath>
</defs>
</svg>
