<svg width="901" height="365" viewBox="0 0 901 365" fill="none" xmlns="http://www.w3.org/2000/svg">
<path d="M151.181 22.4536L49.0052 81.8797C33.9209 90.6529 24.6406 106.786 24.6406 124.236V184.027V243.817C24.6406 261.267 33.921 277.4 49.0052 286.173L100.251 315.978L151.181 345.599C166.41 354.457 185.221 354.457 200.45 345.599L302.625 286.173C317.71 277.4 326.99 261.267 326.99 243.817V124.236C326.99 106.786 317.71 90.6529 302.625 81.8797L200.45 22.4536C185.221 13.5962 166.41 13.5962 151.181 22.4536Z" fill="white" stroke="#0962A6" stroke-width="16.3013"/>
<path d="M171.321 345.835V164.5M171.321 164.5L302.122 86.7188M171.321 164.5L33.8203 95" stroke="#0962A6" stroke-width="16"/>
<path d="M274.38 159.348L247.542 174.843L220.704 190.338L207.285 198.085" stroke="#0962A6" stroke-width="8.946" stroke-linecap="round"/>
<path d="M207.285 221.196L220.704 213.448L247.542 197.953L274.38 182.458L287.799 174.711" stroke="#0962A6" stroke-width="8.946" stroke-linecap="round"/>
<path d="M207.285 244.306L220.704 236.559L247.542 221.064L260.961 213.316" stroke="#0962A6" stroke-width="8.946" stroke-linecap="round"/>
<path d="M335.899 125.779C339.808 124.969 343.888 125.993 347.159 128.765L347.451 129.019C353.512 134.425 354.64 144.152 350.527 151.152L350.503 151.193L350.479 151.233L300.232 232.75L300.185 232.828L300.186 232.829L263.433 294.247C259.974 300.026 253.661 303.371 247.064 301.915L246.965 301.892L246.538 301.787L246.492 301.776L246.447 301.764L205.97 290.949L205.903 290.932L205.652 290.86L205.621 290.852L205.59 290.842C197.63 288.459 193.66 279.52 195.146 271.505L195.22 271.126C196.843 263.32 203.661 257.037 211.84 258.714L212.236 258.801L212.301 258.816L212.553 258.88L212.619 258.897L244.471 267.406L276.233 214.328L276.265 214.277L326.537 132.716C328.703 129.076 332.051 126.577 335.899 125.779Z" fill="#29A040" stroke="white" stroke-width="8.98057" stroke-linecap="round"/>
<path d="M172.013 83.4602L174.848 88.0561L182.495 83.3387L174.741 78.8L172.013 83.4602ZM92.1383 132.735L89.3033 128.139L86.7383 129.722V132.735H92.1383ZM92.1383 216.435H86.7383V217.912L87.4893 219.183L92.1383 216.435ZM169.178 78.8643L89.3033 128.139L94.9733 137.331L174.848 88.0561L169.178 78.8643ZM104.71 50.3204L169.285 88.1204L174.741 78.8L110.166 41L104.71 50.3204ZM86.7383 132.735V216.435H97.5383V132.735H86.7383ZM87.4893 219.183L163.866 348.413L173.164 342.918L96.7872 213.688L87.4893 219.183ZM166.986 342.883C168.396 340.556 171.779 340.575 173.164 342.918L163.866 348.413C166.635 353.098 173.402 353.135 176.222 348.481L166.986 342.883Z" fill="#0962A6"/>
<path d="M152.984 82.3646C152.806 89.8354 161.084 96.0924 171.473 96.3401C181.863 96.5877 190.429 90.7322 190.607 83.2614C190.785 75.7906 182.507 69.5336 172.118 69.286C161.728 69.0384 153.162 74.8939 152.984 82.3646Z" fill="#0962A6"/>
<path d="M81.4447 204.791C87.5888 200.537 97.3651 204.016 103.281 212.56C109.196 221.105 109.011 231.48 102.867 235.733C96.723 239.987 86.9466 236.509 81.031 227.964C75.1154 219.42 75.3006 209.045 81.4447 204.791Z" fill="#0962A6"/>
<path d="M378.062 241.188V177.5C378.062 170.25 381.812 166.688 389.312 166.688H409.188C434.125 166.688 447.312 181.438 447.312 209.375C447.312 237.25 434.125 252 409.188 252H389.312C381.812 252 378.062 248.438 378.062 241.188ZM394.938 238.188H407.062C422.75 238.188 430.062 228.938 430.062 209.375C430.062 189.688 422.688 180.438 407.062 180.438H394.938V238.188ZM487.875 184.25C505.938 184.25 518.438 195.688 518.438 214.75V222.562C518.438 242.25 505.938 253.438 487.875 253.438C469.75 253.438 457.25 242.25 457.25 222.625V214.812C457.25 195.688 469.75 184.25 487.875 184.25ZM487.875 197.062C479.438 197.062 474.188 203.938 474.188 215.125V222.5C474.188 233.812 479.438 240.625 487.875 240.625C496.438 240.625 501.5 233.812 501.5 222.5V215.125C501.5 203.938 496.438 197.062 487.875 197.062ZM529.312 223.188V213.875C529.312 196.25 540.125 184.25 559.188 184.25C565.688 184.25 572.312 185.75 577.312 189.062C581.375 191.688 584.625 195.625 584.625 199.812C584.625 203.625 582.125 206.562 578.062 206.562C574.875 206.562 573.125 204.688 571.438 203.062C568.562 199.688 564.938 197.75 560.062 197.75C550.812 197.75 546.25 204.625 546.25 214.75V222.375C546.25 232.75 550.25 239.938 560.188 239.938C564.75 239.938 568.688 238.25 572 234.438C573.562 232.938 575.375 231 578.438 231C582.125 231 584.812 233.438 584.812 237.625C584.812 241.875 581.625 246.062 576.812 249C571.688 252.062 565.562 253.438 559.25 253.438C540.562 253.438 529.312 242.188 529.312 223.188ZM616.688 243.5C616.688 249.25 613.625 252.625 608.312 252.625C602.938 252.625 599.812 249.25 599.812 243.5V179.562C599.812 170.688 603.688 166.688 612.562 166.688H634.375C652.625 166.688 663.938 176.688 663.938 192.812C663.938 203.625 658.375 212.25 648.875 216.25L661.25 238.938C662.188 240.625 662.75 242.75 662.75 244.562C662.75 249.125 659.188 252.375 654.375 252.375C649.938 252.375 647.562 250.5 644.75 245L632.188 220.25H616.688V243.5ZM616.688 207.625H631.938C641.5 207.625 647 202.875 647 194.125C647 185.438 641.438 180.5 632.125 180.5H616.688V207.625ZM677.312 168.875C677.312 163.875 681.312 160.25 686.625 160.25C692.062 160.25 696 163.875 696 168.875C696 173.875 692.062 177.562 686.625 177.562C681.312 177.562 677.312 173.875 677.312 168.875ZM694.875 243.562C694.875 249.562 691.75 252.625 686.625 252.625C681.562 252.625 678.438 249.5 678.438 243.562V194.188C678.438 188.188 681.562 185.062 686.688 185.062C691.75 185.062 694.875 188.188 694.875 194.188V243.562ZM753.125 240.438C750.625 246.375 743.812 250.812 734.5 250.812C719.812 250.812 709.438 240 709.438 221.438V214.062C709.438 195.562 719.812 184.625 734.375 184.625C744.25 184.625 751.125 189.688 753.438 195.688H754.25V192.875C754.5 187.562 757.562 184.875 762.188 184.875C767.312 184.875 770.375 188.062 770.375 194V250.125C770.375 267.938 758.125 276.875 739.375 276.875C730.938 276.875 724 275.375 719.188 272.625C714.875 270.188 712 266.562 712 262.562C712 258.812 714.625 256.25 718.75 256.25C721.375 256.25 723 257.562 725.125 259.125C727.938 261.062 731.938 263.75 739.125 263.75C748.75 263.75 754 258.812 754 249.188V240.438H753.125ZM726.375 220.875C726.375 231.5 732 238.438 740.438 238.438C749.188 238.438 753.938 231.125 753.938 222.125V214.312C753.938 205.125 749.062 197.812 740.25 197.812C731.688 197.812 726.375 204.75 726.375 215.438V220.875ZM846.188 243.562C846.188 249.312 843.188 252.625 837.938 252.625C832.625 252.625 829.688 249.375 829.688 243.562V212.125C829.688 203.438 825.188 198.5 817.5 198.5C809.062 198.5 803.5 204.938 803.5 215.125V243.562C803.5 249.375 800.5 252.625 795.25 252.625C790 252.625 787.062 249.375 787.062 243.562V170.812C787.062 165 790 161.688 795.312 161.688C800.562 161.688 803.5 165 803.5 170.812V197.375H804.312C806.562 189.875 814.688 184.625 824.125 184.625C837.938 184.625 846.188 193.25 846.188 207.688V243.562ZM866.438 234.25V199.062H863.062C858.625 199.062 856.062 196.625 856.062 192.625C856.062 188.625 858.625 186.188 863.062 186.188H866.75V177.562C866.75 171.875 869.688 168.688 874.75 168.688C879.875 168.688 882.812 171.875 882.812 177.562V186.188H889.375C893.875 186.188 896.438 188.625 896.438 192.625C896.438 196.625 893.875 199.062 889.375 199.062H882.938V232.438C882.938 238.438 884.562 240.438 889.5 240.438C891.25 240.438 892.375 240.188 893.875 240.188C896.75 240.188 898.75 242.125 898.75 245.188C898.75 247.625 897.688 249.688 895.375 251.062C893.062 252.562 889.688 253.312 885.188 253.312C872.125 253.312 866.438 247.812 866.438 234.25Z" fill="#01508D"/>
</svg>
